<?xml version="1.0" encoding="utf-8"?>
<!-- Generator: Adobe Illustrator 17.1.0, SVG Export Plug-In . SVG Version: 6.00 Build 0)  -->
<!DOCTYPE svg PUBLIC "-//W3C//DTD SVG 1.1//EN" "http://www.w3.org/Graphics/SVG/1.1/DTD/svg11.dtd">
<svg version="1.1" id="Слой_1" xmlns="http://www.w3.org/2000/svg" xmlns:xlink="http://www.w3.org/1999/xlink" x="0px" y="0px"
	 viewBox="0 0 170.1 245.1" enable-background="new 0 0 170.1 245.1" xml:space="preserve">
<g>
	<defs>
		<rect id="SVGID_1_" width="170.1" height="245.1"/>
	</defs>
	<clipPath id="SVGID_2_">
		<use xlink:href="#SVGID_1_"  overflow="visible"/>
	</clipPath>
	<path clip-path="url(#SVGID_2_)" fill-rule="evenodd" clip-rule="evenodd" fill="#002053" d="M103.3,2.5c1,0.4,1.5,1.4,2.1,2.2
		c3.8,1.9,8.4,2,11.9,4.6c2.2,2.3,2.3,6,1.2,8.8c-0.6-1-1.2-2.4-2.5-2.4c-3.7-0.3-7.4,0-11,0.4c-1.3,2.8-4.5,4.1-6.5,6.3
		c-1.9,8.9-2,24.9,4.1,31.9c-5.3-2.4-9.8-6.2-14.1-10.1c2.1,3.9,4.9,7.4,8.3,10.1c-1.8-0.9-3.5-2-5.3-3c0.9,1,1.8,1.9,2.8,2.9
		c-3.9-1.9-7.6-4.2-10.5-7.4c0.9,2,2.1,3.8,3.4,5.5c-7-3.6-17.2,2-19.3-5.7c-1.6-5,3.3-22.3,3.5-27.5c-0.9,0.5-1.7,0.9-2.6,1.4
		c1.3-3.7,3.3-7.2,6.1-10c-0.5,0.1-1.4,0.4-1.9,0.5C75.8,8,78.4,4.5,82,2.2C87.9-1.4,97.2-0.1,103.3,2.5"/>
	<path clip-path="url(#SVGID_2_)" fill-rule="evenodd" clip-rule="evenodd" fill="#FFFFFF" d="M91.3,8.5c-0.2-1.3,0.8-2.3,1.7-3.1
		c-0.6,0.9-1.5,1.9-1.1,3.1c0.4,1.7,2.5,2.6,4,1.9c0.9-0.3,1.3-1.2,1.9-1.8c-0.5,0.8-0.9,1.8-1.8,2.2C94.2,11.8,91.5,10.6,91.3,8.5"
		/>
	<path clip-path="url(#SVGID_2_)" fill-rule="evenodd" clip-rule="evenodd" fill="#FFFFFF" d="M104.5,6.9c0.4-0.4,0.9-0.8,1.3-1.2
		c0.3,0.2,0.9,0.5,1.2,0.7c-0.7,2-2.9,2.8-4.8,2.8c-1.1,0-1.4,1.2-2.2,1.6C100.5,8.5,103.1,8.4,104.5,6.9"/>
	<path clip-path="url(#SVGID_2_)" fill-rule="evenodd" clip-rule="evenodd" fill="#FFFFFF" d="M93.6,5.5C94.3,6,95.7,6.3,96.7,7
		c-0.2,1-1.6,1.6-2.3,0.7C94.1,7,93.8,6.2,93.6,5.5"/>
	<path clip-path="url(#SVGID_2_)" fill-rule="evenodd" clip-rule="evenodd" fill="#FFFFFF" d="M77.9,12.6c1.8-3.5,5-6.2,8.9-7
		c-0.9,0.9-1.7,1.9-2.5,2.9C84.8,8.3,85.4,8.2,86,8c-0.9,0.8-1.7,1.6-2.5,2.5c0.9-0.2,1.9-0.5,2.8-0.8c-3.8,3.9-6.6,8.9-7,14.4
		c0,1,0,2.1-0.2,3.1c-0.5-0.7-0.4-1.6-0.6-2.4c-0.2,1.2-0.1,2.5-0.1,3.7l-0.4,0c-0.1-0.6-0.2-1.2-0.3-1.8c-0.4-3.8,0.6-7.7,2.2-11.2
		c-0.7,0.9-1.4,1.7-2.2,2.5c0.5-2.2,1.8-4.1,3.1-5.9c-0.7,0.4-1.4,0.9-2.1,1.3c0.5-0.8,1.2-1.5,1.8-2.3
		C79.6,11.6,78.8,12.1,77.9,12.6"/>
	<path clip-path="url(#SVGID_2_)" fill-rule="evenodd" clip-rule="evenodd" fill="#FFFFFF" d="M107.6,6.7c3.8,0.3,8,1.3,10.5,4.4
		c-0.2,0.3-0.5,0.6-0.7,1c0.2-1-0.7-1.6-1.4-2.1c-2.5-1.5-5.5-1.5-8.3-1.7c-0.3,0.3-0.8,1-1.1,1.3c2.7-0.2,5.5-0.3,8.1,0.7
		c1.1,0.5,2.3,1.1,2.7,2.4c0.3-0.1,0.7-0.3,1-0.4c0.2,1.4,0.3,2.9,0.2,4.4c-0.8-2.6-3.3-4.3-6-4.6c-4-0.5-8-0.5-12,0
		C103.1,10.4,106.5,9.7,107.6,6.7"/>
	<path clip-path="url(#SVGID_2_)" fill-rule="evenodd" clip-rule="evenodd" fill="#FFFFFF" d="M100.7,12.5c5-0.9,10.1-0.7,15,0.7
		c0.3,0.4,1,1.3,1.3,1.7c-1.4-0.5-2.7-1-4.1-1.4c0.7,0.4,1.4,0.8,2.1,1.3c-3.5,0-7.1,0-10.5,0.6C104.4,13.3,102.2,13.1,100.7,12.5"
		/>
	<path clip-path="url(#SVGID_2_)" fill-rule="evenodd" clip-rule="evenodd" fill="#002053" d="M82.6,32.9c2.3,0,4.7-0.1,7.1,0.2
		c9.3,0.4,18.6,1.6,27.9,3.7c1.9,0,3.7-0.1,5.5-0.4c10-1.5,46.9-19.8,46.9-10.9v131l-84.8,85.6L82.6,32.9z"/>
	<polygon clip-path="url(#SVGID_2_)" fill-rule="evenodd" clip-rule="evenodd" fill="#3C6EB4" points="150.4,70.8 170.1,51.1 
		170.1,52.4 150.4,72.1 	"/>
	<polygon clip-path="url(#SVGID_2_)" fill-rule="evenodd" clip-rule="evenodd" fill="#3C6EB4" points="150.4,83.3 170.1,63.6 
		170.1,65 150.4,84.7 	"/>
	<polygon clip-path="url(#SVGID_2_)" fill-rule="evenodd" clip-rule="evenodd" fill="#3C6EB4" points="150.4,95.9 170.1,76.2 
		170.1,77.6 150.4,97.3 	"/>
	<polygon clip-path="url(#SVGID_2_)" fill-rule="evenodd" clip-rule="evenodd" fill="#3C6EB4" points="150.4,108.5 170.1,88.8 
		170.1,90.1 150.4,109.8 	"/>
	<polygon clip-path="url(#SVGID_2_)" fill-rule="evenodd" clip-rule="evenodd" fill="#3C6EB4" points="150.4,121 170.1,101.3 
		170.1,102.7 150.4,122.4 	"/>
	<polygon clip-path="url(#SVGID_2_)" fill-rule="evenodd" clip-rule="evenodd" fill="#3C6EB4" points="150.4,133.6 170.1,113.9 
		170.1,115.3 150.4,135 	"/>
	<polygon clip-path="url(#SVGID_2_)" fill-rule="evenodd" clip-rule="evenodd" fill="#3C6EB4" points="150.4,146.2 170.1,126.5 
		170.1,127.8 150.4,147.5 	"/>
	<polygon clip-path="url(#SVGID_2_)" fill-rule="evenodd" clip-rule="evenodd" fill="#3C6EB4" points="150.4,158.7 170.1,139.1 
		170.1,140.4 150.4,160.1 	"/>
	<path clip-path="url(#SVGID_2_)" fill-rule="evenodd" clip-rule="evenodd" fill="#002053" d="M87.4,32.9c-2.3,0-4.7-0.1-7.1,0.2
		c-9.3,0.4-18.6,1.6-27.9,3.7c-1.9,0-3.7-0.1-5.5-0.4C36.9,34.9,0,16.5,0,25.5v131l84.8,85.6L87.4,32.9z"/>
	<polygon clip-path="url(#SVGID_2_)" fill-rule="evenodd" clip-rule="evenodd" fill="#3C6EB4" points="19.7,70.8 0,51.1 0,52.4 
		19.7,72.1 	"/>
	<polygon clip-path="url(#SVGID_2_)" fill-rule="evenodd" clip-rule="evenodd" fill="#3C6EB4" points="19.7,83.3 0,63.6 0,65 
		19.7,84.7 	"/>
	<polygon clip-path="url(#SVGID_2_)" fill-rule="evenodd" clip-rule="evenodd" fill="#3C6EB4" points="19.7,95.9 0,76.2 0,77.6 
		19.7,97.3 	"/>
	<polygon clip-path="url(#SVGID_2_)" fill-rule="evenodd" clip-rule="evenodd" fill="#3C6EB4" points="19.7,108.5 0,88.8 0,90.1 
		19.7,109.8 	"/>
	<polygon clip-path="url(#SVGID_2_)" fill-rule="evenodd" clip-rule="evenodd" fill="#3C6EB4" points="19.7,121 0,101.3 0,102.7 
		19.7,122.4 	"/>
	<polygon clip-path="url(#SVGID_2_)" fill-rule="evenodd" clip-rule="evenodd" fill="#3C6EB4" points="19.7,133.6 0,113.9 0,115.3 
		19.7,135 	"/>
	<polygon clip-path="url(#SVGID_2_)" fill-rule="evenodd" clip-rule="evenodd" fill="#3C6EB4" points="19.7,146.2 0,126.5 0,127.8 
		19.7,147.5 	"/>
	<polygon clip-path="url(#SVGID_2_)" fill-rule="evenodd" clip-rule="evenodd" fill="#3C6EB4" points="19.7,158.7 0,139.1 0,140.4 
		19.7,160.1 	"/>
	<path clip-path="url(#SVGID_2_)" fill-rule="evenodd" clip-rule="evenodd" fill="#32418B" d="M19.7,49.9c43.6-7.5,87.1-7.9,130.7,0
		v17.6H19.7V49.9z"/>
	<path clip-path="url(#SVGID_2_)" fill-rule="evenodd" clip-rule="evenodd" fill="#77A0D4" d="M42.8,235.3l29.4,0
		c7.6,0,11.9,5.1,12.9,7.3c1.1-2,4.9-7.4,12.7-7.4h28.9c13.6,0,21.6-9.3,21.6-22.9l0.3-139.2H21.5l-0.3,139.2
		C21.2,225.9,29.3,235.3,42.8,235.3"/>
	<polygon clip-path="url(#SVGID_2_)" fill-rule="evenodd" clip-rule="evenodd" fill="#BFD0EB" points="146.4,193.8 91.9,202.8 
		146.4,211.5 	"/>
	<path clip-path="url(#SVGID_2_)" fill-rule="evenodd" clip-rule="evenodd" fill="#32418B" d="M136.9,157.9l1.2,2.4l-0.2,1.2
		c-1.4,0-1.9,2.1-1.5,4.4l-0.3-0.2l-1.2-5.5l-2.7-4.3l-2-4.6l-3.5-3c0.6-0.4,1.2,0,1.9-0.4c1-0.5,2-1.8,2.9-2.1
		c0.8-0.2,0.7,0.4,1.2,0.8c0.6,0.5,1.8,0.9,1.5,2.2l0.8,2.3l-0.7,2.3l1.3,2l-0.7,0.8l1.2,1.9L136.9,157.9z M20.1,123.3L20,197.6
		c0.3-2.2,1.4-4.2,3.8-4.8l2.7-0.2l1.5,1.3l4.7-3.5l4.2-2c2.7-1.8,5.6-1.4,8.5-1.1l3-3.8l0.1-4.1c0.6-0.7,1.9-1.2,3.6-1.6l-3.9-0.2
		c-0.2-0.6-1.1-0.7-1.1-1.2c-0.3-2.1,0.9-3.4,3.2-4.3c0.4-0.1,0.8,0.3,1.3,0.2c0.1,0,0.8-0.4,0.9-0.5c0.6-0.1,1-0.4,1.6-0.5
		c0.7-0.1,1.2,0.3,2,0.2l4.7,1.8l2.6,0.7l1.7,0.6l1.5,1.7l0.4,2.7l1.3,1l3.3-0.2l4.3-0.3l4.3-3.1l3.3-1.3c1.8,0.2,2.5,1.1,3.2,2.1
		c0.2,0,0.3-0.2,0.5-0.5c0.2-0.4,0.9-0.7,1.3-0.6c0.4,0.2,0.4,0.8,0.6,1.2c0.1,0.1,0.3-0.5,0.5-0.4c0-0.8,0.1-1.5,0.1-2.2l1.4-0.6
		l3.1-1l1.9-0.3l3.3,0.3l5.5,1.7l1.1,1l6.4,0.4l3.8,1.2l3.6,1.7l6.4,3.3l2.3,0.6l4.7,4.3l1.8,2.3l1.6,3.1l0.4,6.1l0.8-3l-0.1-4.4
		c-0.8-1.4-1.5-2.7-1-4.2l0.5-1.8l0.1-11.5l-1.2-2.1c-1.1-1.3-1.9-2.7-1.9-4.5c-0.3-0.4-0.6-0.9-0.8-1.3c0.1-0.6-0.3-1.2-1.1-1.7
		l-0.6-1l-2.8-2.3l-0.2-0.3l-1.4-0.1l-3.2-3l-0.9-1.3l1.4-1.1l-2.2-0.6l-2-0.6l-0.2-1.4l-1.3-1.5c-0.7-0.1-1.2-0.8-1.6-1.8l0-0.7
		l-0.8-0.4l-0.4-1.3c0.5-1,0-1.7-0.7-2.3l-0.7-2.1l-2.2-0.9l-6.4-0.9l-4.7-2.2l-2.6-0.8c-2.4,0.5-3.6-0.1-4.1-1.7l-1.7-1.8l-0.1-0.2
		c-1.2-1-2.2-2.2-2.5-4l-0.8-1.5l-0.7-0.4l-0.6-0.6l-0.4-0.4l-0.2-0.8l-0.3,0.1l-0.6-1.6c-0.2-0.8,0.2-1.5,0.8-2.1l0.1-0.8l-0.7-0.6
		l-0.2,0.6l-2.3,0.1c-5.1,1.8-9.4,2.8-10,0.4l-0.4-0.5l-4.9,0.7c-9.9,3.4-9.9,2.7-20.7,5.3l-6.4-0.6l-7.5-0.4l-8.4-0.7l-3.3-1.4
		L20.1,123.3z"/>
	<path clip-path="url(#SVGID_2_)" fill="none" stroke="#3C6EB4" stroke-width="0.257" stroke-miterlimit="2.613" d="M69.1,177.2
		c0.4-0.2,1.4,0.4,1.6,0.2c2-1.3,0.3-1.5,1.5-2.3c1.7-1.2,2.3-0.4,3.2-1.3c0.3-0.3,1-0.7,1.2-1.8c0.2-1.5,5.6,1.8,9.4-2.4
		c2.3-2.6,3.8-2.5,3.9-3.2c0.2-1.2-2.4-2.5-4-6.1c-0.2-0.4-0.8-5-1.1-5.2"/>
	<path clip-path="url(#SVGID_2_)" fill="none" stroke="#3C6EB4" stroke-width="0.257" stroke-miterlimit="2.613" d="M98.1,145.9
		c0.2,1.8-10.3,6.4-13.2,9.1c-0.7,0.7-1.2,0.6-1.8,1.1c-1.2,1-1.5,1.8-2.8,1.8c-0.7,0-1.3-0.6-2.2-0.7c-2.4-3.1-4.5,0.4-6.1,0
		c-0.3-0.1-1.3-0.1-1.6-0.4c-0.6-0.4-3.2-0.5-5.3,0.2c-1.4,0.5-2.5,1.8-3.1,3.4c-0.6,0.1-0.3,0.7-1,0.7"/>
	<path clip-path="url(#SVGID_2_)" fill="none" stroke="#3C6EB4" stroke-width="0.257" stroke-miterlimit="2.613" d="M63.6,157.9
		c0-1.9,1.1-3.2,1.4-4.6c0.4-1.8,1.1-2.7,1.9-4.2c0.4-0.7,0.2-2.8,0.7-3.6c0.4-0.7,1.3-0.4,1.8-1.2c0.2-0.4,0.5-0.5,0.8-0.9
		c1.2-1.5,4.2-5.8,7.2-9.5c2-2.5,3.8-4.5,4.6-4.9c1.9-0.9,1.3-1.4,0.7-2.3c-0.5-0.8,0.1-2.2-0.4-2.7c-0.5-0.5-1.8,0.8-4.6,1.1
		c-3.5,0.3-2.5-1.9-3.9-1.5c-0.8,0.2-3.5,3.2-6.1,4.1c-3.6,1.2-9.9,3.5-10.1,4.4L63.6,157.9z"/>
	<path clip-path="url(#SVGID_2_)" fill="none" stroke="#3C6EB4" stroke-width="0.257" stroke-miterlimit="2.613" d="M86.1,126.3
		c0.1,1.4,2.5,2.8,3.1,5.3c0.5,2.2,1.9,3.8,2.9,5c0.3,0.4,0.8,2.7,1.4,4.8c0.5,1.8,1.5,3.6,2.1,4.9c0.4,1,0.5,1.6,0.8,1.6"/>
	<path clip-path="url(#SVGID_2_)" fill="none" stroke="#3C6EB4" stroke-width="0.257" stroke-miterlimit="2.613" d="M90,166.5
		c3.7,0.8,4.9,0.6,6.1,0.2c1.7-0.5,2.3-1.6,4.6-2.6c0.4-0.2,0.8-0.3,1.1-0.8c0.7-0.9,2.7-1,4.3-1.5"/>
	<path clip-path="url(#SVGID_2_)" fill="none" stroke="#3C6EB4" stroke-width="0.257" stroke-miterlimit="2.613" d="M43.5,165.7
		c0.1-0.6-0.9-1.7-1.2-2.5c-0.7-1.7-1.9-4-4.2-6.2c-1.3-1.3-2.2-2.3-3.6-4c-0.7-0.8-2.3-1.6-2.6-2.8c0-0.1-7.1-9.5-8.1-10.5
		c-2-2.2-1.7-1.6-3.3-3.8"/>
	<path clip-path="url(#SVGID_2_)" fill="none" stroke="#3C6EB4" stroke-width="0.257" stroke-miterlimit="2.613" d="M41.1,161
		c0.2,1-1.6,4.1-1.9,6.7c-0.3,2.8,0.7,5.5,1.8,6.8c1,1.2-0.3,2.4-1.5,5.1c-0.5,1.2-0.8,3.5-1.3,4.4c-1.3,2.3-3.4,3.5-6.6,6.3
		c-0.1,0-1.1,1.8-2.7,1.3c-3.5-1.1-6.9,0.5-8.6,2.2"/>
	<path clip-path="url(#SVGID_2_)" fill="none" stroke="#3C6EB4" stroke-width="0.257" stroke-miterlimit="2.613" d="M39,158.2
		c-1.2-0.1-3-0.8-5.2-1.3c-3.9-0.8-8.6-1.6-10.6-2.6c-0.1-0.1-1.5-0.6-2.8-1.1"/>
	<path clip-path="url(#SVGID_2_)" fill="none" stroke="#3C6EB4" stroke-width="0.257" stroke-miterlimit="2.613" d="M98.1,145.7
		c1.5,0.1,9.2,0.6,9.9,1.2c0.3,0.2,3.5-1.5,2.5-3.4"/>
	<path clip-path="url(#SVGID_2_)" fill="none" stroke="#3C6EB4" stroke-width="0.257" stroke-miterlimit="2.613" d="M108.5,146.5
		c1,0.8,0.3,1-0.5,1.9c-0.5,0.6-0.9,1.6-1.4,2.6c-0.2,0.5-0.8,0.8-0.9,1.4c-0.3,1.1,0.4,2.3,0.1,3.4c-0.6,2.8-0.7,5.5,0.9,7.4
		c0.8,0.9,0.4,1.4,0.5,1.6c0.1,0.4,0.3,0.3,0.9,2.1c0.4,1.3,1.6,2.4,1.9,4.9c0.3,2.4,0.4-0.4-4,0.5c-2.9,0.7-2.3-0.4-2.1-2.6
		c0-0.3-0.4-0.4-1.1-0.5"/>
	<path clip-path="url(#SVGID_2_)" fill="none" stroke="#3C6EB4" stroke-width="0.257" stroke-miterlimit="2.613" d="M105.5,152.9
		c1.3,0.6,9.2,2.1,9.4,3.9c0.6,0.1,5.4,6.6,6.4,8.1c0.6,0.9,3.2,4.2,5.3,4.1c0.5,0,0.9-1.5,1.4-2c1.6-1.4,3-0.8,4.1-0.9
		c0.2,0,0.3-0.4,0.5-0.5c2.2-0.7,1.5-1.2,3.4-2.2c0.3-0.2,0.5-1,0.6-1.9c0.1-0.7,0.1-1.3-0.2-1.9c-0.7-1.3-2.1-2.7-2.1-4.3
		c0-0.6-0.5-1-0.7-1.5c-0.1-0.3-0.5-0.5-0.6-0.8c0-0.1-0.9-1.7-0.9-1.9"/>
	<path clip-path="url(#SVGID_2_)" fill="none" stroke="#3C6EB4" stroke-width="0.257" stroke-miterlimit="2.613" d="M61.9,160.8
		c0-0.9-2.3-0.4-3-1.2c-0.1-0.1-3-0.2-3.3,0.1c-0.4,0.4-1.5,0.3-2.7,1.9c-0.1,0.2-3.6,1.1-4.3,1.4c-1.7,0.7-3.4,0.8-5.4,1.3
		c-0.1,0-0.1,0.3-0.2,0.3"/>
	<path clip-path="url(#SVGID_2_)" fill="none" stroke="#3C6EB4" stroke-width="0.257" stroke-miterlimit="2.613" d="M43.5,165.7
		c0.6,0.5,3.1,2.2,3,2.8c0,0.3,0.4,2.5,0.8,2.5c2.8-0.1,2.8-1.7,3.2-1.8c0.4-0.1,0.9-1.4,2.3-1.6c0.5-0.1,5.1-5,7.9-6
		c0.2-0.1,0.4-0.2,0.5-0.3"/>
	<path clip-path="url(#SVGID_2_)" fill="none" stroke="#3C6EB4" stroke-width="0.257" stroke-miterlimit="2.613" d="M52.4,167.8
		c0,0,2.8,0.2,3.3,0.2c1,0,4.6,0.2,5.1-0.4c0.5-0.5,5.7-0.3,6.6-1c1-0.9,0.4,5.3,0.6,5.3c0.3,0,1,0.3,0.9,0.6c0.2,0.2,0.1,4.7,0,4.7
		c-0.8-1-2.7-2.2-2.7-3.6c0-1.2-2.6-2-3.6-2.1c-2-0.3-0.8-0.7-3.4-0.5c-1.7,0.1-3.7-0.5-5.8-0.5c-1.6,0-2.7,1.2-4.5,1.2
		c-0.2,0-0.7-0.6-0.4-0.7"/>
	<path clip-path="url(#SVGID_2_)" fill="none" stroke="#3C6EB4" stroke-width="0.257" stroke-miterlimit="2.613" d="M41.2,176.1
		c2.1-0.4,0.6,0.7,2.9-1.5c0.1-0.1,0.4-1.5,1.8-2.1c0.5-0.2,1.7-1.9,2.1-1.8"/>
	<path clip-path="url(#SVGID_2_)" fill="none" stroke="#3C6EB4" stroke-width="0.257" stroke-miterlimit="2.613" d="M44.2,174.1
		c-0.9-1.5-0.5-0.3-0.9-1c-0.2-0.3-0.2-5.1-0.1-5.6c0.3-0.9,2.4-1.6,2.6-3.7"/>
	<path clip-path="url(#SVGID_2_)" fill="none" stroke="#3C6EB4" stroke-width="0.257" stroke-miterlimit="2.613" d="M71.9,175.2
		c0,0.4,0.8,2.4,1.2,2.4c1.3,0,2-0.8,3.8-0.8c0.8,0,2.9-1.4,4-1.5c1.4-0.1,4.4-1.2,5.4-0.4c0,0,1.7,0.4,1.6-0.9
		c0-0.8,4.5-1.9,4.9-2.2c0.7-0.5,2.1,0.5,2.3,0.5c0.2,0.8,4.5-0.2,6.4,1c0.2,0.1,2.2,0.5,3.9,0.8c1.1,0.2,2,0.9,2.2,1.1
		c0,0,3.1-0.1,3.2-0.6c0.1,0,0.2,0,0.2,0"/>
	<path clip-path="url(#SVGID_2_)" fill="none" stroke="#3C6EB4" stroke-width="0.257" stroke-miterlimit="2.613" d="M86.2,126.5
		c-0.6-0.5,0.6-3.2-0.7-3.4c-1-0.2-0.7,0.5-2.4,0.4c-0.4,0-1.2,0.4-1.4,0.5"/>
	<path clip-path="url(#SVGID_2_)" fill="none" stroke="#3C6EB4" stroke-width="0.257" stroke-miterlimit="2.613" d="M92.7,139
		c-1.1,0.2-2,0.1-3.2,0.4c-0.6,0.2-6.6,0-7.3-0.5c-1.1-0.8-3.3-0.9-3.5-1.5c-0.2-0.7-3.4,1-4.3,0.4"/>
	<path clip-path="url(#SVGID_2_)" fill="none" stroke="#3C6EB4" stroke-width="0.257" stroke-miterlimit="2.613" d="M93.6,141.7
		c1.4,0,1.4-0.6,3.3-0.5c1.7,0.1,3.4-0.6,5.1-0.2c0.7,0.2,2.6,0.1,2.7,0.9c0,0.2,0.8,0.8,0.2,2.4c-0.1,0.3-0.4,1.8-0.4,1.8"/>
	<path clip-path="url(#SVGID_2_)" fill="none" stroke="#3C6EB4" stroke-width="0.257" stroke-miterlimit="2.613" d="M80.4,157.9
		c0,0-0.8,0.9-1,1.1c-0.4,0.3-0.1,0.8-1.7,1.5c-2.9,1.2-0.9,2.5-2,5.6c-0.8,2.3-0.2,2.2-0.1,4.6c0.1,1.4-4.2,3.1-3.6,4.7"/>
	<path clip-path="url(#SVGID_2_)" fill="none" stroke="#3C6EB4" stroke-width="0.257" stroke-miterlimit="2.613" d="M61.9,160.6
		c0,0.5,0.2,0.8,1,0.6c0,0,2,0.7,2.4,0.9c0.4,0.2,2.1,2.8,2.1,3.9c0,0.1,0,0.9,0.1,0.5"/>
	<path clip-path="url(#SVGID_2_)" fill="none" stroke="#3C6EB4" stroke-width="0.257" stroke-miterlimit="2.613" d="M67,156.7
		c0.1,0.9,1.2,2.1,1.7,3.6c0.5,1.4,2,3,2,4.6c0,0.6,0.2,2.7,0.2,3.6c0,0.3,0,5,0.6,3.4c0.6-0.2,0.7-1.9,0.3-2.7
		c-0.5-1.1,0.5-0.5-0.9-2.2"/>
	<path clip-path="url(#SVGID_2_)" fill="none" stroke="#3C6EB4" stroke-width="0.257" stroke-miterlimit="2.613" d="M49.7,170
		c-0.4-1.3-0.8-0.9-1-2.5c-0.2-1.1-0.7-2.9-1.3-3.8c-0.5-0.8,1.5-4.4,1.4-5.5c0-0.1,0.5-1.1,0.5-2.5c0-1.7,0.2-1.2-0.4-2.6
		c-0.1-0.4-1-4.8-1.7-3.6c-0.4,0.8-5,1.4-7,3.3c-0.5,0.5-2.6,1.6-3.4,2.6c-0.1,0.1-0.2,0.2-0.1-0.1"/>
	<path clip-path="url(#SVGID_2_)" fill="none" stroke="#3C6EB4" stroke-width="0.257" stroke-miterlimit="2.613" d="M47.2,149.8
		c0.2-1.3,3-1.2,4.4-2.7c1.2-1.2,2.2,1.3,3.8,1.9c1.6,0.6,1.7,4.9,3,4.9c4.2,0,3.2-2.1,6.8-2.1c0.1,0,0.1,0,0.2-0.1"/>
	<path clip-path="url(#SVGID_2_)" fill="none" stroke="#3C6EB4" stroke-width="0.257" stroke-miterlimit="2.613" d="M85.4,156.9
		c3.4-0.2,3.4-1.9,8.5-1.8c2.5,0.1,5.7-4.3,7.1-5.7c0.4-0.4,5.3-3,3.3-3"/>
	<path clip-path="url(#SVGID_2_)" fill="none" stroke="#3C6EB4" stroke-width="0.257" stroke-miterlimit="2.613" d="M98.4,152.2
		c2.1,0.9,8.1,2.9,8.3,5.3c0.2,2.2,5.3,2.3,6.9,2.3c2.6,0,3.6,2.1,6.9,2c1.8-0.1,5.4,1.4,6.7,3c0.5,0.6,3.2,1.2,4,1.2"/>
	<path clip-path="url(#SVGID_2_)" fill="none" stroke="#3C6EB4" stroke-width="0.257" stroke-miterlimit="2.613" d="M126.4,164.3
		c0.1,0.9-1.7,4.8-1.7,7.4c0,1.2-1.2,1.3-0.3,5.7c0.2,1.2,0.9,3.4,2,3.5c0.1,0,6.1,4.3,7,4.7c0,0,3.7,6.4,3.9,6.5"/>
	<path clip-path="url(#SVGID_2_)" fill="none" stroke="#3C6EB4" stroke-width="0.257" stroke-miterlimit="2.613" d="M78.2,137.3
		c4.3-2.6,8.5-0.4,10.8-2.1c0.1-0.1,1.5-0.3,1.6-0.3"/>
	<path clip-path="url(#SVGID_2_)" fill="none" stroke="#3C6EB4" stroke-width="0.257" stroke-miterlimit="2.613" d="M20.5,129.3
		c3.1,1.8,3,1.8,6.8,1.8c3,0,0.4-1.4,5.2-0.8c1.7,0.2,0.9,0.7,3.9,0.7c1.6,0,3.9-0.6,5.4-0.2c1.1,0.3,1.7-0.2,3.5,0.6
		c0.2,0.1,1.3,0,1.6,0"/>
	<path clip-path="url(#SVGID_2_)" fill="none" stroke="#3C6EB4" stroke-width="0.257" stroke-miterlimit="2.613" d="M47.4,149.2
		c-1-0.9,1-0.9,0-2.4c-0.7-1.1-0.9-0.6-1.4-2.2c-0.1-0.3-2.7-4.9-3-5.2c-0.7-0.5-1.6-1.8-2.9-2.2c-2.2-0.8-1.8-3-1.8-4.9
		c0,0-1-4.3-1-4.4"/>
	<path clip-path="url(#SVGID_2_)" fill="none" stroke="#3C6EB4" stroke-width="0.257" stroke-miterlimit="2.613" d="M26.6,131.2
		c-0.1,1.2,1,0.5-0.3,2.4c-0.3,0.4,0.8,0.5,0.2,2.2c-0.4,1.1,0.5,0.6-1.4,1.5c-0.7,0.4-1-0.5-2.3,0.9"/>
	<path clip-path="url(#SVGID_2_)" fill-rule="evenodd" clip-rule="evenodd" fill="#9FBCE3" d="M78.2,206.7h1v-2.2h0v-6v0V197
		c1.3-1.6,3-2.7,4.7-3.1l1-2.5v0h0v0l1,2.5c1.7,0.4,3.4,1.5,4.7,3.1l0,1.5v0v6h0v2.2h1h1.8v2.3h-1.3l2.3,28.9
		c-3.9,0.9-7,3.2-8.6,5.1h-0.9h0H84c-1.5-1.9-4.6-4.2-8.6-5.1l2.3-28.9h-1.3v-2.3H78.2z"/>
	<path clip-path="url(#SVGID_2_)" fill-rule="evenodd" clip-rule="evenodd" fill="#C3D0EB" d="M78.2,207.1h1.4v-2.6h0v-6v0V197
		c1.5-1.6,3-2.6,4.5-2.8l0.8-2.2h0l0.8,2.2c1.5,0.2,3,1.2,4.5,2.8v1.4v0v6h0v2.6h1.4H93v1.5h-1.3l2.3,29.2c-3.9,0.9-6.7,3.2-8.2,5.1
		h-0.9h0H84c-1.5-1.9-4.2-4.2-8.2-5.1l2.3-29.2h-1.3v-1.5H78.2z"/>
	
		<rect x="79.6" y="206.7" clip-path="url(#SVGID_2_)" fill-rule="evenodd" clip-rule="evenodd" fill="#9FBCE3" width="10.6" height="0.4"/>
	
		<rect x="79.6" y="198.1" clip-path="url(#SVGID_2_)" fill-rule="evenodd" clip-rule="evenodd" fill="#9FBCE3" width="10.6" height="0.4"/>
	<path clip-path="url(#SVGID_2_)" fill-rule="evenodd" clip-rule="evenodd" fill="#9FBCE3" d="M80.9,212.1h1.4v3.7h-1.4V212.1z
		 M80.5,211.8h2.1v4.5h-2.1V211.8z"/>
	<path clip-path="url(#SVGID_2_)" fill-rule="evenodd" clip-rule="evenodd" fill="#9FBCE3" d="M80.9,222.6h1.4v3.7h-1.4V222.6z
		 M80.5,222.2h2.1v4.5h-2.1V222.2z"/>
	<path clip-path="url(#SVGID_2_)" fill-rule="evenodd" clip-rule="evenodd" fill="#9FBCE3" d="M80.9,232.9h1.4v3.7h-1.4V232.9z
		 M80.5,232.5h2.1v4.5h-2.1V232.5z"/>
	<path clip-path="url(#SVGID_2_)" fill-rule="evenodd" clip-rule="evenodd" fill="#002053" d="M41.6,237.5l30.2,0
		c7.8,0,12.2,5.2,13.2,7.5c1.1-2,5-7.6,13.1-7.6h29.7c14,0,22.5-9.6,22.5-23.6l0-143.2H19.7l0,143.2
		C19.7,227.9,27.7,237.5,41.6,237.5 M41.6,233.5l30.2,0v0c3.9,0,7.2,1.1,9.8,2.5c1.3,0.8,2.5,1.6,3.5,2.6c1-0.9,2.1-1.8,3.5-2.6
		c2.5-1.4,5.7-2.5,9.6-2.5h29.7c5.7,0,10.2-1.9,13.2-5.1c3.2-3.4,5.2-8.4,5.2-14.5l0-139.2H23.7l0,139.2h0v0h0
		c0,5.9,1.4,10.9,4.6,14.3C31.3,231.6,35.8,233.5,41.6,233.5L41.6,233.5L41.6,233.5L41.6,233.5z"/>
	<polygon clip-path="url(#SVGID_2_)" fill-rule="evenodd" clip-rule="evenodd" fill="#FFFFFF" points="42.8,59.6 38.9,59.6 
		38.9,64.4 36.6,64.4 36.6,52.9 43.5,52.9 43.5,54.6 38.9,54.6 38.9,57.8 42.8,57.8 	"/>
	<path clip-path="url(#SVGID_2_)" fill-rule="evenodd" clip-rule="evenodd" fill="#FFFFFF" d="M52.3,52.9v7.8c0,1.2-0.4,2.2-1.1,2.8
		c-0.7,0.7-1.7,1-2.8,1c-1.2,0-2.1-0.3-2.8-1c-0.7-0.7-1.1-1.6-1.1-2.8v-7.8h2.2v7.8c0,0.7,0.1,1.2,0.4,1.5c0.3,0.3,0.7,0.5,1.2,0.5
		c0.5,0,1-0.2,1.2-0.5c0.3-0.3,0.4-0.8,0.4-1.6v-7.8H52.3z"/>
	<polygon clip-path="url(#SVGID_2_)" fill-rule="evenodd" clip-rule="evenodd" fill="#FFFFFF" points="60.7,54.6 58.1,54.6 
		58.1,64.4 55.9,64.4 55.9,54.6 53.3,54.6 53.3,52.9 60.7,52.9 	"/>
	<path clip-path="url(#SVGID_2_)" fill-rule="evenodd" clip-rule="evenodd" fill="#FFFFFF" d="M64.1,57.7h1.2c0.5,0,0.8-0.1,1.1-0.4
		c0.2-0.3,0.4-0.6,0.4-1.1c0-0.5-0.1-0.9-0.4-1.2c-0.3-0.3-0.6-0.4-1.1-0.4l-1.1,0V57.7z M64.1,59.3v3.3h1.6c0.5,0,0.8-0.1,1.1-0.4
		c0.2-0.3,0.4-0.7,0.4-1.2c0-0.6-0.1-1-0.3-1.3c-0.2-0.3-0.5-0.4-1-0.4L64.1,59.3z M61.8,64.4V52.9h3.4c1.2,0,2.1,0.3,2.8,0.8
		c0.7,0.5,1,1.3,1,2.4c0,0.5-0.1,1-0.4,1.5c-0.2,0.4-0.6,0.7-1.1,1c0.6,0.1,1.1,0.5,1.3,0.9c0.3,0.5,0.4,1,0.4,1.7
		c0,1.1-0.3,1.9-0.9,2.5c-0.6,0.6-1.5,0.9-2.7,0.9H61.8z"/>
	<path clip-path="url(#SVGID_2_)" fill-rule="evenodd" clip-rule="evenodd" fill="#FFFFFF" d="M76.3,57c0-0.8-0.2-1.4-0.5-1.9
		c-0.3-0.4-0.8-0.6-1.3-0.6c-0.6,0-1,0.2-1.3,0.6c-0.3,0.4-0.4,1-0.4,1.9v3.2c0,0.8,0.2,1.5,0.5,1.9c0.3,0.4,0.7,0.6,1.3,0.6
		c0.6,0,1-0.2,1.3-0.6c0.3-0.4,0.5-1,0.5-1.9V57z M78.5,60.2c0,1.3-0.4,2.4-1.1,3.2c-0.7,0.8-1.7,1.1-2.9,1.1
		c-1.2,0-2.2-0.4-2.9-1.1c-0.7-0.8-1.1-1.8-1.1-3.2V57c0-1.3,0.4-2.4,1.1-3.2c0.7-0.8,1.7-1.1,2.9-1.1c1.2,0,2.2,0.4,2.9,1.1
		c0.7,0.8,1.1,1.8,1.1,3.2V60.2z"/>
	<polygon clip-path="url(#SVGID_2_)" fill-rule="evenodd" clip-rule="evenodd" fill="#FFFFFF" points="82.2,62.6 86.4,62.6 
		86.4,64.4 80,64.4 80,52.9 82.2,52.9 	"/>
	<polygon clip-path="url(#SVGID_2_)" fill-rule="evenodd" clip-rule="evenodd" fill="#FFFFFF" points="94.3,59.6 93.4,59.6 
		93.4,64.4 91.1,64.4 91.1,52.9 93.4,52.9 93.4,57.5 94.1,57.5 96.3,52.9 99.1,52.9 95.9,58.1 99.3,64.4 96.6,64.4 	"/>
	<polygon clip-path="url(#SVGID_2_)" fill-rule="evenodd" clip-rule="evenodd" fill="#FFFFFF" points="102.3,62.6 106.5,62.6 
		106.5,64.4 100.1,64.4 100.1,52.9 102.3,52.9 	"/>
	<path clip-path="url(#SVGID_2_)" fill-rule="evenodd" clip-rule="evenodd" fill="#FFFFFF" d="M114.9,52.9v7.8
		c0,1.2-0.4,2.2-1.1,2.8s-1.7,1-2.8,1c-1.2,0-2.1-0.3-2.8-1c-0.7-0.7-1.1-1.6-1.1-2.8v-7.8h2.2v7.8c0,0.7,0.1,1.2,0.4,1.5
		c0.3,0.3,0.7,0.5,1.2,0.5c0.5,0,1-0.2,1.2-0.5c0.3-0.3,0.4-0.8,0.4-1.6v-7.8H114.9z"/>
	<path clip-path="url(#SVGID_2_)" fill-rule="evenodd" clip-rule="evenodd" fill="#FFFFFF" d="M118.8,57.7h1.2
		c0.5,0,0.8-0.1,1.1-0.4c0.2-0.3,0.4-0.6,0.4-1.1c0-0.5-0.1-0.9-0.4-1.2c-0.3-0.3-0.6-0.4-1.1-0.4l-1.1,0V57.7z M118.8,59.3v3.3h1.6
		c0.5,0,0.8-0.1,1.1-0.4c0.2-0.3,0.4-0.7,0.4-1.2c0-0.6-0.1-1-0.3-1.3c-0.2-0.3-0.5-0.4-1-0.4L118.8,59.3z M116.5,64.4V52.9h3.4
		c1.2,0,2.1,0.3,2.8,0.8c0.7,0.5,1,1.3,1,2.4c0,0.5-0.1,1-0.4,1.5c-0.2,0.4-0.6,0.7-1.1,1c0.6,0.1,1.1,0.5,1.3,0.9
		c0.3,0.5,0.4,1,0.4,1.7c0,1.1-0.3,1.9-0.9,2.5c-0.6,0.6-1.5,0.9-2.7,0.9H116.5z"/>
	<path clip-path="url(#SVGID_2_)" fill-rule="evenodd" clip-rule="evenodd" fill="#FFFFFF" d="M133.2,52.9v7.8
		c0,1.2-0.4,2.2-1.1,2.8c-0.7,0.7-1.7,1-2.8,1c-1.2,0-2.1-0.3-2.8-1c-0.7-0.7-1.1-1.6-1.1-2.8v-7.8h2.2v7.8c0,0.7,0.1,1.2,0.4,1.5
		c0.3,0.3,0.7,0.5,1.2,0.5c0.5,0,1-0.2,1.2-0.5c0.3-0.3,0.4-0.8,0.4-1.6v-7.8H133.2z"/>
	<path clip-path="url(#SVGID_2_)" fill-rule="evenodd" clip-rule="evenodd" fill="#FFFFFF" d="M119.5,111.7c1.9,0,3.3-0.9,4.4-2.6
		c1.1-1.7,1.7-4,1.9-6.7l-12.8,0v0.9c0,2.6,0.5,4.6,1.5,6.2C115.6,111,117.2,111.7,119.5,111.7 M117.5,79.6c5,0,8.9,1.6,11.6,4.7
		c2.7,3.1,4,7.3,4,12.4v4.2c0,5-1.3,9.1-3.9,12.3c-2.6,3.2-5.9,4.8-9.7,4.8c-4.5,0-7.9-1.5-10.2-4.6c-2.4-3.1-3.5-7.3-3.5-12.8l0-4
		h20.1c0-3.2-0.7-5.8-2-7.7c-1.3-2-3.4-2.9-6.4-2.9c-1.7,0-3.3,0.2-4.7,0.5c-1.4,0.4-2.6,0.8-3.6,1.3l-1.1-5.9
		c0.6-0.5,1.7-0.9,3.4-1.5C113.3,79.9,115.3,79.6,117.5,79.6 M84.5,96.9h4.9c1.5,0,2.6-0.5,3.4-1.4c0.8-0.9,1.1-2.2,1.1-3.9
		c0-1.7-0.4-3.1-1.1-4.1c-0.8-1-1.9-1.5-3.4-1.5h-4.9V96.9z M84.5,102.7v14.8h-7.3V80.2h12.2c3.7,0,6.6,1,8.7,2.9
		c2.1,1.9,3.1,4.6,3.1,8.1c0,2-0.4,3.6-1.3,5c-0.9,1.4-2.1,2.5-3.8,3.4c1.9,0.7,3.3,1.7,4.1,3.2c0.8,1.5,1.3,3.4,1.3,5.6v2.6
		c0,1,0.1,2.1,0.4,3.3c0.2,1.2,0.7,2,1.3,2.5v0.5h-7.5c-0.6-0.5-1-1.4-1.1-2.7c-0.2-1.2-0.2-2.5-0.2-3.8v-2.5c0-1.9-0.4-3.3-1.1-4.3
		c-0.8-1-1.8-1.5-3.3-1.5H84.5z M71.2,86.4h-7.5v-6.2h7.5V86.4z M71.1,117.5h-7.3V88.8h7.3V117.5z M45,111.7h14.3v5.8H36.8v-3.7
		l14-27.8H36.6v-5.8h22.5v3.5L45,111.7z"/>
	<path clip-path="url(#SVGID_2_)" fill-rule="evenodd" clip-rule="evenodd" fill="#32418B" d="M123.8,169.1c1.9,0,3.4,1.5,3.4,3.4
		c0,1.9-1.5,3.4-3.4,3.4c-1.9,0-3.4-1.5-3.4-3.4S121.9,169.1,123.8,169.1"/>
	<path clip-path="url(#SVGID_2_)" fill-rule="evenodd" clip-rule="evenodd" fill="#3C6EB4" d="M123.8,169.1c1.9,0,3.4,1.5,3.4,3.4
		c0,1.9-1.5,3.4-3.4,3.4c-1.9,0-3.4-1.5-3.4-3.4S121.9,169.1,123.8,169.1 M123.8,170.1c1.3,0,2.4,1.1,2.4,2.4c0,1.3-1.1,2.4-2.4,2.4
		c-1.3,0-2.4-1.1-2.4-2.4C121.4,171.1,122.5,170.1,123.8,170.1"/>
	<path clip-path="url(#SVGID_2_)" fill-rule="evenodd" clip-rule="evenodd" fill="#BFD0EB" d="M64.8,226.2h-5.7v-1.3l2.6-3.3
		c0.4-0.5,0.6-0.9,0.8-1.3c0.2-0.4,0.2-0.7,0.2-1c0-0.4-0.1-0.7-0.2-1c-0.2-0.3-0.4-0.4-0.7-0.4c-0.3,0-0.5,0.2-0.7,0.5
		c-0.2,0.3-0.2,0.7-0.2,1.2H59l0,0c0-0.9,0.2-1.6,0.7-2.2c0.5-0.6,1.2-0.9,2.1-0.9c0.9,0,1.6,0.3,2.1,0.8c0.5,0.5,0.7,1.2,0.7,2.1
		c0,0.6-0.1,1.1-0.4,1.6c-0.3,0.5-0.7,1.2-1.4,2l-1.3,1.8h3.3V226.2z"/>
	<path clip-path="url(#SVGID_2_)" fill-rule="evenodd" clip-rule="evenodd" fill="#BFD0EB" d="M69.6,220.2c0-0.8-0.1-1.3-0.2-1.7
		c-0.2-0.4-0.4-0.5-0.7-0.5h0c-0.3,0-0.5,0.1-0.7,0.5c-0.2,0.4-0.2,0.9-0.2,1.7v2.4c0,0.8,0.1,1.4,0.2,1.7c0.2,0.4,0.4,0.5,0.7,0.5
		h0c0.3,0,0.5-0.1,0.7-0.5c0.2-0.4,0.2-0.9,0.2-1.7V220.2z M71.5,222.4c0,1.3-0.3,2.3-0.8,2.9c-0.5,0.7-1.2,1-2,1
		c-0.9,0-1.5-0.3-2.1-1c-0.5-0.7-0.8-1.6-0.8-2.9v-2.1c0-1.3,0.3-2.3,0.8-2.9c0.5-0.7,1.2-1,2.1-1c0.9,0,1.5,0.3,2.1,1
		c0.5,0.7,0.8,1.6,0.8,2.9V222.4z"/>
	<polygon clip-path="url(#SVGID_2_)" fill-rule="evenodd" clip-rule="evenodd" fill="#BFD0EB" points="101.8,226.2 99.9,226.2 
		99.9,218.5 98.1,218.6 98.1,217.2 101.8,216.6 	"/>
	<path clip-path="url(#SVGID_2_)" fill-rule="evenodd" clip-rule="evenodd" fill="#BFD0EB" d="M106.1,222.6h1.6v-3.3l0,0l-0.1,0.2
		L106.1,222.6z M109.5,222.6h0.8v1.5h-0.8v2.1h-1.9v-2.1h-3.2l-0.1-1.2l3.3-6.4h1.9V222.6z"/>
	<polygon clip-path="url(#SVGID_2_)" fill-rule="evenodd" clip-rule="evenodd" fill="#BFD0EB" points="23.7,193.8 78.1,202.8 
		23.7,211.5 	"/>
</g>
</svg>
