<?xml version="1.0" encoding="UTF-8" standalone="no"?>
<!-- Created with Inkscape (http://www.inkscape.org/) -->
<svg
   xmlns:svg="http://www.w3.org/2000/svg"
   xmlns="http://www.w3.org/2000/svg"
   version="1.0"
   width="72"
   height="72">
  <path
     d="M 65.639,39.234 C 67.498,39.234 69.004,37.727 69.004,35.867 C 69.004,34.009 67.498,32.501 65.639,32.501 C 63.779,32.501 62.273,34.009 62.273,35.867 C 62.273,37.727 63.779,39.234 65.639,39.234 z M 61.346,35.867 C 61.346,33.497 63.269,31.576 65.639,31.576 C 68.01,31.576 69.932,33.497 69.932,35.867 C 69.932,38.239 68.01,40.16 65.639,40.16 C 63.269,40.16 61.346,38.239 61.346,35.867 M 47.757,45.677 C 49.258,43.856 50.347,41.681 50.874,39.295 L 45.672,39.295 L 45.659,55.126 C 43.608,56.151 41.369,56.857 39.008,57.179 L 39.008,14.77 L 39.008,14.73 C 49.473,16.14 57.509,25.107 57.509,35.957 C 57.509,41.244 55.596,46.084 52.422,49.819 L 47.757,45.677 z M 45.613,32.747 L 50.889,32.747 C 50.147,29.314 48.244,26.312 45.616,24.17 L 45.613,32.747 M 65.847,34.707 L 64.732,34.707 L 64.732,35.466 L 65.877,35.466 C 66.025,35.451 66.189,35.287 66.189,35.065 C 66.189,34.841 65.847,34.707 65.847,34.707 z M 64.732,36.507 L 64.732,38.279 L 63.659,38.279 L 63.659,33.769 L 66.472,33.785 C 66.472,33.785 67.424,34.082 67.468,34.796 C 67.512,35.51 67.409,35.585 67.319,35.734 C 67.232,35.882 66.978,36.225 66.723,36.344 L 67.765,38.279 L 66.53,38.279 L 65.564,36.507 L 64.732,36.507 M 15.368,41.397 C 17.536,49.679 24.536,56.005 33.174,57.179 L 33.174,37.475 L 23.135,27.826 C 24.108,26.296 25.346,24.951 26.784,23.856 L 26.777,27.417 L 33.264,27.417 L 33.264,14.722 C 24.75,15.844 17.813,21.967 15.498,30.042 L 26.652,40.034 L 26.652,48.014 C 24,45.951 22.051,43.031 21.215,39.669 L 15.368,41.397 M 36.007,2.078 C 17.272,2.078 2.069,17.249 2.069,35.984 C 2.069,54.718 17.272,69.922 36.007,69.922 C 46.45,69.922 55.783,65.19 62.007,57.765 L 55.476,52.078 C 50.852,57.599 43.927,61.109 36.163,61.109 C 22.273,61.109 10.996,49.864 10.944,35.984 C 10.944,35.953 10.944,35.922 10.944,35.89 C 10.944,21.969 22.242,10.703 36.163,10.703 C 43.972,10.703 50.946,14.253 55.569,19.828 L 62.101,14.297 C 55.878,6.823 46.492,2.078 36.007,2.078 z"
     style="fill:#000000;fill-opacity:1;fill-rule:nonzero;stroke:none" />
</svg>
